<svg width="36" height="36" viewBox="0 0 36 36" fill="none" xmlns="http://www.w3.org/2000/svg">
<circle cx="18" cy="18" r="16.5" fill="#FF645A" stroke="white" stroke-width="3"/>
<g clip-path="url(#clip0_1_141)">
<path d="M20.2 12.2C20.2 13.5 19.1 14.6 17.8 14.6C16.5 14.6 15.4 13.5 15.4 12.2C15.4 12.2 15.4 12.1 15.4 12H20.1C20.2 12.1 20.2 12.2 20.2 12.2Z" fill="white"/>
<path d="M20.6 15.1H20.2H15.5H15.2C14.2 15.1 13.5 15.9 13.5 16.8V17.5V22C13.5 22.5 13.9 22.9 14.4 22.9C14.9 22.9 15.3 22.5 15.3 22V17.7C15.3 17.6 15.4 17.5 15.5 17.5C15.4 17.5 15.5 17.6 15.5 17.7V23.5V24.2V30.4C15.5 31 16 31.5 16.6 31.5C17.2 31.5 17.7 31 17.7 30.4V24.4C17.7 24.3 17.8 24.2 17.9 24.2C18 24.2 18.1 24.3 18.1 24.4V30.4C18.1 31 18.6 31.5 19.2 31.5C19.8 31.5 20.3 31 20.3 30.4V24.2V23.5V17.7C20.3 17.6 20.4 17.5 20.5 17.5C20.6 17.5 20.7 17.6 20.7 17.7V22C20.7 22.5 21.1 22.9 21.6 22.9C22.1 22.9 22.5 22.5 22.5 22V17.5V16.8C22.3 15.9 21.5 15.1 20.6 15.1Z" fill="white"/>
<path d="M16.1 11.6H20.2C20.2 10.3 20 9.20001 18.1 9.00001L18.2 8.90001C18.2 8.80001 18 8.70001 17.8 8.70001C17.6 8.70001 17.4 8.80001 17.4 8.90001V9.00001C16.2 9.00001 15.6 9.50001 15.3 10.2C14 10.3 13 10.6 13 11C13 11.4 13.9 11.5 15.1 11.6H15.7C15.8 11.6 15.8 11.6 15.9 11.6C16 11.6 16 11.6 16.1 11.6Z" fill="white"/>
</g>
<defs>
<clipPath id="clip0_1_141">
<rect width="20" height="20" fill="white" transform="translate(8 8)"/>
</clipPath>
</defs>
</svg>
