<svg width="20" height="20" viewBox="0 0 20 20" fill="none" xmlns="http://www.w3.org/2000/svg">
<path d="M9.66667 4.33333C10.8633 4.33333 11.8333 3.36328 11.8333 2.16667C11.8333 0.97005 10.8633 0 9.66667 0C8.47005 0 7.5 0.97005 7.5 2.16667C7.5 3.36328 8.47005 4.33333 9.66667 4.33333Z" fill="white"/>
<path d="M12.1667 4.75H11.8333H7.49999H7.24999C6.33332 4.75 5.66666 5.5 5.66666 6.33333V7V11.0833C5.66666 11.5 5.99999 11.9167 6.49999 11.9167C6.91666 11.9167 7.33332 11.5833 7.33332 11.0833V7.16667C7.33332 7.08333 7.41666 7 7.49999 7C7.41666 7 7.49999 7.08333 7.49999 7.16667V12.4167V13.0833V18.75C7.49999 19.3333 7.91666 19.75 8.49999 19.75C9.08332 19.75 9.49999 19.3333 9.49999 18.75V13.25C9.49999 13.1667 9.58332 13.0833 9.66666 13.0833C9.74999 13.0833 9.83332 13.1667 9.83332 13.25V18.75C9.83332 19.3333 10.25 19.75 10.8333 19.75C11.4167 19.75 11.8333 19.3333 11.8333 18.75V13.0833V12.4167V7.16667C11.8333 7.08333 11.9167 7 12 7C12.0833 7 12.1667 7.08333 12.1667 7.16667V11.0833C12.1667 11.5 12.5 11.9167 13 11.9167C13.4167 11.9167 13.8333 11.5833 13.8333 11.0833V7V6.33333C13.75 5.5 13 4.75 12.1667 4.75Z" fill="white"/>
</svg>
